<svg width="108" height="32" viewBox="0 0 108 32" fill="none" xmlns="http://www.w3.org/2000/svg">
<path d="M46.8853 16.158H50.1153V22.4833C48.3657 23.7619 45.7077 24.6366 43.4198 24.6366C38.4404 24.6366 34.6384 21.0029 34.6384 16.2253C34.6384 11.4813 38.5076 7.84766 43.6217 7.84766C46.0778 7.84766 48.5676 8.78972 50.2498 10.2365L48.1638 12.8944C46.9526 11.7505 45.2367 11.044 43.6554 11.044C40.7282 11.044 38.474 13.2982 38.474 16.1917C38.474 19.1188 40.7619 21.3394 43.689 21.3394C44.6647 21.3394 45.8423 21.0029 46.919 20.431V16.158H46.8853Z" fill="#4D4D4D"/>
<path d="M69.8988 16.2253C69.8988 20.9693 66.0969 24.6366 61.0501 24.6366C56.0033 24.6366 52.2014 21.0029 52.2014 16.2253C52.2014 11.4141 56.0033 7.84766 61.0501 7.84766C66.0969 7.84766 69.8988 11.4477 69.8988 16.2253ZM56.0033 16.2253C56.0033 19.1188 58.3249 21.373 61.0838 21.373C63.8427 21.373 66.0633 19.1188 66.0633 16.2253C66.0633 13.3318 63.809 11.1112 61.0838 11.1112C58.2912 11.1449 56.0033 13.3318 56.0033 16.2253Z" fill="#4D4D4D"/>
<path d="M82.9866 16.158H86.2165V22.4833C84.467 23.7619 81.809 24.6366 79.5211 24.6366C74.5416 24.6366 70.7397 21.0029 70.7397 16.2253C70.7397 11.4813 74.6089 7.84766 79.723 7.84766C82.1791 7.84766 84.6688 8.78972 86.3511 10.2365L84.2651 12.8944C83.0539 11.7505 81.338 11.044 79.7566 11.044C76.8295 11.044 74.5753 13.2982 74.5753 16.1917C74.5753 19.1188 76.8632 21.3394 79.7903 21.3394C80.766 21.3394 81.9436 21.0029 83.0202 20.431V16.158H82.9866Z" fill="#4D4D4D"/>
<path d="M106 16.2253C106 20.9693 102.198 24.6366 97.1514 24.6366C92.1046 24.6366 88.3027 21.0029 88.3027 16.2253C88.3027 11.4141 92.1046 7.84766 97.1514 7.84766C102.198 7.84766 106 11.4477 106 16.2253ZM92.1046 16.2253C92.1046 19.1188 94.4261 21.373 97.1851 21.373C99.944 21.373 102.165 19.1188 102.165 16.2253C102.165 13.3318 99.9103 11.1112 97.1851 11.1112C94.3925 11.1449 92.1046 13.3318 92.1046 16.2253Z" fill="#4D4D4D"/>
<path d="M22.2913 8.82483C26.8291 12.4729 26.8291 19.3825 22.2913 23.0306L20.9164 24.136C17.232 27.0979 13.1101 29.4699 8.69796 31.167C3.78993 33.0549 -1.17162 28.5403 0.245909 23.4764L1.47378 19.09C2.05278 17.0216 2.05278 14.8339 1.47378 12.7655L0.24591 8.37912C-1.17162 3.31518 3.78993 -1.19942 8.69796 0.688464C13.1101 2.38561 17.232 4.75755 20.9164 7.71951L22.2913 8.82483Z" fill="url(#paint0_linear_8491_33697)"/>
<defs>
<linearGradient id="paint0_linear_8491_33697" x1="12.8473" y1="0.25" x2="12.8473" y2="31.6055" gradientUnits="userSpaceOnUse">
<stop stop-color="#83CD5B"/>
<stop offset="1" stop-color="#51942D"/>
</linearGradient>
</defs>
</svg>
